<?xml version="1.0" encoding="utf-8"?>
<!-- Generator: Adobe Illustrator 27.0.0, SVG Export Plug-In . SVG Version: 6.00 Build 0)  -->
<svg version="1.1" id="Layer_1" xmlns="http://www.w3.org/2000/svg" xmlns:xlink="http://www.w3.org/1999/xlink" x="0px" y="0px"
	 viewBox="0 0 32 32" style="enable-background:new 0 0 32 32;" xml:space="preserve">
<style type="text/css">
	.st0{fill:#FFFFFF;}
	.st1{fill:#E4E8EB;}
	.st2{fill:#808285;}
	.st3{fill:#D1D3D4;}
	.st4{fill:#001632;}
	.st5{fill:none;stroke:#001632;stroke-width:0.9178;stroke-miterlimit:10;}
	.st6{fill:none;stroke:#CCCCCC;stroke-width:1.3527;stroke-linecap:round;stroke-miterlimit:10;}
	.st7{fill:none;stroke:#CCCCCC;stroke-width:0.6763;stroke-linecap:round;stroke-miterlimit:10;}
	.st8{fill:none;stroke:#CCCCCC;stroke-width:0.9606;stroke-miterlimit:10;}
	.st9{fill:none;stroke:#CCCCCC;stroke-width:0.8785;stroke-miterlimit:10;}
	.st10{fill:none;stroke:#CCCCCC;stroke-width:0.772;stroke-miterlimit:10;}
	.st11{fill:none;stroke:#CCCCCC;stroke-width:0.6;stroke-miterlimit:10;}
	.st12{fill:#CCCCCC;}
	.st13{fill:none;stroke:#000000;stroke-width:0.2;stroke-miterlimit:10;}
	.st14{fill:none;}
	.st15{fill:none;stroke:#000000;stroke-width:0.1;stroke-miterlimit:10;}
	.st16{fill:none;stroke:#020202;stroke-width:0.1;stroke-miterlimit:10;}
	.st17{fill:#E93903;}
	.st18{fill:#FA8909;}
	.st19{fill:#F66331;}
	.st20{fill:#F93F03;}
	.st21{fill:#CB0B03;}
	.st22{fill:#134F04;}
	.st23{fill:#FE9A37;}
	.st24{fill:#A40D03;}
	.st25{fill:#8B0A01;}
	.st26{fill:#169904;}
	.st27{fill:#23CA0D;}
	.st28{fill:#1BB10A;}
	.st29{fill:#146E04;}
	.st30{fill:#FDDF59;}
	.st31{fill:#FCD435;}
	.st32{fill:#FFCA00;}
	.st33{fill:#FEAD57;}
	.st34{fill:#20E70E;}
	.st35{fill:none;stroke:#000000;stroke-width:0.2371;stroke-miterlimit:10;}
	.st36{fill:#9A2D28;}
	.st37{fill:#CD3301;}
	.st38{fill:#FF9935;}
	.st39{fill:#2AD105;}
	.st40{fill:#1E9004;}
	.st41{fill:#FFFFFF;stroke:#000000;stroke-width:1.3063;stroke-miterlimit:10;}
	.st42{fill:none;stroke:#FFFFFF;stroke-width:0.6;stroke-miterlimit:10;}
	.st43{fill:none;stroke:#FFFFFF;stroke-miterlimit:10;}
	.st44{fill:none;stroke:#000000;stroke-width:5;stroke-miterlimit:10;}
	.st45{fill:none;stroke:#000000;stroke-width:3.5471;stroke-miterlimit:10;}
	.st46{fill:none;stroke:#CCCCCC;stroke-width:0.6;stroke-linecap:round;stroke-miterlimit:10;}
	.st47{fill:none;stroke:#CCCCCC;stroke-width:0.8101;stroke-linecap:round;stroke-miterlimit:10;}
	.st48{fill:none;stroke:#CCCCCC;stroke-width:0.5882;stroke-linecap:round;stroke-miterlimit:10;}
	.st49{fill:none;stroke:#CCCCCC;stroke-width:0.6529;stroke-miterlimit:10;}
	.st50{fill:#9FE5F7;}
	.st51{fill:none;stroke:#CCCCCC;stroke-width:0.5529;stroke-miterlimit:10;}
	.st52{fill:none;stroke:#FFFFFF;stroke-width:0.2163;stroke-miterlimit:10;}
	.st53{fill:none;stroke:#FFFFFF;stroke-width:0.9011;stroke-miterlimit:10;}
	.st54{fill:none;stroke:#FFFFFF;stroke-width:0.5781;stroke-miterlimit:10;}
	.st55{fill:none;stroke:#FFFFFF;stroke-width:0.2891;stroke-miterlimit:10;}
	.st56{fill:none;stroke:#FFFFFF;stroke-width:0.3643;stroke-miterlimit:10;}
	.st57{fill:none;stroke:#FFFFFF;stroke-width:0.2178;stroke-miterlimit:10;}
	.st58{fill:#EFEFEF;}
	.st59{fill:none;stroke:#FFFFFF;stroke-width:0.167;stroke-miterlimit:10;}
	.st60{fill:none;stroke:#FFFFFF;stroke-width:0.2574;stroke-linecap:round;stroke-linejoin:round;stroke-miterlimit:10;}
	.st61{fill:#ACD4F7;}
	.st62{opacity:0.1294;}
	.st63{fill:none;stroke:#00CFFF;stroke-width:1.4078;stroke-miterlimit:10;}
	.st64{fill:none;stroke:#000000;stroke-width:0.6642;stroke-miterlimit:10;}
	.st65{fill:none;stroke:#000000;stroke-width:0.2245;stroke-miterlimit:10;}
	.st66{fill:#FFFFFF;stroke:#CCCCCC;stroke-width:0.5337;stroke-miterlimit:10;}
	.st67{fill:#FFFFFF;stroke:#CCCCCC;stroke-width:0.6;stroke-miterlimit:10;}
	.st68{fill:none;stroke:#000000;stroke-width:0.6;stroke-miterlimit:10;}
	.st69{fill:none;stroke:#CCCCCC;stroke-width:1.1756;stroke-linecap:round;stroke-miterlimit:10;}
	.st70{fill:none;stroke:#CCCCCC;stroke-width:0.9378;stroke-linecap:round;stroke-miterlimit:10;}
	.st71{fill:none;stroke:#CCCCCC;stroke-width:0.4;stroke-miterlimit:10;}
	.st72{fill:none;stroke:#CCCCCC;stroke-width:0.5942;stroke-miterlimit:10;}
	.st73{fill:none;stroke:#CCCCCC;stroke-width:0.3;stroke-miterlimit:10;}
	.st74{fill:#AFAFAF;}
	.st75{fill:none;stroke:#CCCCCC;stroke-miterlimit:10;}
	.st76{fill:none;stroke:#CCCCCC;stroke-width:0.5676;stroke-linecap:round;stroke-miterlimit:10;}
	.st77{fill:none;stroke:url(#SVGID_1_);stroke-width:0.3;stroke-linecap:round;stroke-miterlimit:10;}
	
		.st78{fill:none;stroke:url(#SVGID_00000019638846036369345700000010557931231166129545_);stroke-width:0.3;stroke-linecap:round;stroke-miterlimit:10;}
	.st79{fill:none;stroke:#001632;stroke-width:2.1076;stroke-miterlimit:10;}
</style>
<g>
	<line class="st11" x1="10.2" y1="2.2" x2="5.3" y2="3.5"/>
	<line class="st11" x1="18.9" y1="27.1" x2="20.1" y2="22.2"/>
	<line class="st11" x1="12.5" y1="30" x2="17.1" y2="28.7"/>
	<line class="st11" x1="6.4" y1="25.8" x2="9.7" y2="29.1"/>
	<line class="st11" x1="7" y1="18.7" x2="5.8" y2="23.2"/>
	<line class="st11" x1="13.7" y1="15.5" x2="8.8" y2="16.8"/>
	<line class="st11" x1="19.7" y1="19.7" x2="16.1" y2="16.1"/>
	<line class="st11" x1="23.2" y1="5.8" x2="18.7" y2="7"/>
	<line class="st11" x1="29" y1="10" x2="26" y2="6.6"/>
	<line class="st11" x1="28.7" y1="17.2" x2="30.2" y2="12.6"/>
	<line class="st11" x1="22" y1="20.3" x2="26.9" y2="19"/>
	<line class="st11" x1="3" y1="12.7" x2="6.3" y2="16"/>
	<line class="st11" x1="3.5" y1="5.5" x2="2.2" y2="10.2"/>
	<line class="st11" x1="16.2" y1="6.6" x2="12.5" y2="2.9"/>
	<line class="st11" x1="15.5" y1="13.4" x2="16.7" y2="8.9"/>
	<path class="st12" d="M24.7,3.7c-1,0-1.8,0.8-1.8,1.8c0,1,0.8,1.8,1.8,1.8c1,0,1.8-0.8,1.8-1.8C26.5,4.5,25.7,3.7,24.7,3.7z
		 M24.7,6.7c-0.6,0-1.2-0.5-1.2-1.2s0.5-1.2,1.2-1.2c0.6,0,1.2,0.5,1.2,1.2S25.3,6.7,24.7,6.7z"/>
	<path class="st12" d="M30.2,9.3c-1,0-1.8,0.8-1.8,1.8c0,1,0.8,1.8,1.8,1.8c1,0,1.8-0.8,1.8-1.8C32,10.1,31.2,9.3,30.2,9.3z
		 M30.2,12.3c-0.6,0-1.2-0.5-1.2-1.2s0.5-1.2,1.2-1.2c0.6,0,1.2,0.5,1.2,1.2S30.8,12.3,30.2,12.3z"/>
	<path class="st12" d="M28.1,16.6c-1,0-1.8,0.8-1.8,1.8c0,1,0.8,1.8,1.8,1.8c1,0,1.8-0.8,1.8-1.8C29.9,17.4,29.1,16.6,28.1,16.6z
		 M28.1,19.6c-0.6,0-1.2-0.5-1.2-1.2c0-0.7,0.5-1.2,1.2-1.2c0.6,0,1.2,0.5,1.2,1.2C29.2,19.1,28.7,19.6,28.1,19.6z"/>
	<path class="st12" d="M20.6,18.8c-1,0-1.8,0.8-1.8,1.8c0,1,0.8,1.8,1.8,1.8c1,0,1.8-0.8,1.8-1.8C22.4,19.6,21.6,18.8,20.6,18.8z
		 M20.6,21.8c-0.6,0-1.2-0.5-1.2-1.2c0-0.7,0.5-1.2,1.2-1.2c0.6,0,1.2,0.5,1.2,1.2C21.8,21.3,21.3,21.8,20.6,21.8z"/>
	<path class="st12" d="M16.8,28.8c0.2,0.7,0.9,1.3,1.7,1.3c1,0,1.8-0.8,1.8-1.8c0-1-0.8-1.8-1.8-1.8c-1,0-1.8,0.8-1.8,1.8
		C16.7,28.5,16.7,28.6,16.8,28.8 M18.5,29.5c-0.6,0-1.2-0.5-1.2-1.2c0-0.7,0.5-1.2,1.2-1.2c0.6,0,1.2,0.5,1.2,1.2
		C19.7,28.9,19.2,29.5,18.5,29.5z"/>
	<path class="st12" d="M11,28.3c-1,0-1.8,0.8-1.8,1.8c0,1,0.8,1.8,1.8,1.8c1,0,1.8-0.8,1.8-1.8C12.8,29.1,12,28.3,11,28.3z M11,31.3
		c-0.6,0-1.2-0.5-1.2-1.2c0-0.7,0.5-1.2,1.2-1.2c0.6,0,1.2,0.5,1.2,1.2C12.2,30.8,11.6,31.3,11,31.3z"/>
	<path class="st12" d="M5.5,22.7c-1,0-1.8,0.8-1.8,1.8c0,1,0.8,1.8,1.8,1.8c1,0,1.8-0.8,1.8-1.8C7.3,23.6,6.5,22.7,5.5,22.7z
		 M5.5,25.8c-0.6,0-1.2-0.5-1.2-1.2c0-0.7,0.5-1.2,1.2-1.2c0.6,0,1.2,0.5,1.2,1.2C6.6,25.2,6.1,25.8,5.5,25.8z"/>
	<path class="st12" d="M7.4,15.3c-1,0-1.8,0.8-1.8,1.8c0,1,0.8,1.8,1.8,1.8c1,0,1.8-0.8,1.8-1.8C9.3,16.1,8.4,15.3,7.4,15.3z
		 M7.4,18.4c-0.6,0-1.2-0.5-1.2-1.2c0-0.7,0.5-1.2,1.2-1.2c0.6,0,1.2,0.5,1.2,1.2C8.6,17.8,8.1,18.4,7.4,18.4z"/>
	<path class="st12" d="M1.8,9.7c-1,0-1.8,0.8-1.8,1.8c0,1,0.8,1.8,1.8,1.8c1,0,1.8-0.8,1.8-1.8C3.7,10.6,2.9,9.7,1.8,9.7z M1.8,12.8
		c-0.6,0-1.2-0.5-1.2-1.2s0.5-1.2,1.2-1.2c0.6,0,1.2,0.5,1.2,1.2S2.5,12.8,1.8,12.8z"/>
	<path class="st12" d="M3.9,2.1C2.9,2.1,2,2.9,2,3.9c0,1,0.8,1.8,1.8,1.8c1,0,1.8-0.8,1.8-1.8C5.7,2.9,4.9,2.1,3.9,2.1z M3.9,5.1
		c-0.6,0-1.2-0.5-1.2-1.2s0.5-1.2,1.2-1.2C4.5,2.7,5,3.3,5,3.9S4.5,5.1,3.9,5.1z"/>
	<path class="st12" d="M11.6,0.1c-1,0-1.8,0.8-1.8,1.8c0,1,0.8,1.8,1.8,1.8c1,0,1.8-0.8,1.8-1.8C13.4,0.9,12.6,0.1,11.6,0.1z
		 M11.6,3.1c-0.6,0-1.2-0.5-1.2-1.2s0.5-1.2,1.2-1.2c0.6,0,1.2,0.5,1.2,1.2S12.2,3.1,11.6,3.1z"/>
	<path class="st12" d="M17.1,5.6c-1,0-1.8,0.8-1.8,1.8c0,1,0.8,1.8,1.8,1.8c1,0,1.8-0.8,1.8-1.8C19,6.5,18.1,5.6,17.1,5.6z
		 M17.1,8.7c-0.6,0-1.2-0.5-1.2-1.2s0.5-1.2,1.2-1.2c0.6,0,1.2,0.5,1.2,1.2S17.8,8.7,17.1,8.7z"/>
	<path class="st12" d="M15.1,13.1c-1,0-1.8,0.8-1.8,1.8c0,1,0.8,1.8,1.8,1.8c1,0,1.8-0.8,1.8-1.8C16.9,13.9,16.1,13.1,15.1,13.1z
		 M15.1,16.1c-0.6,0-1.2-0.5-1.2-1.2s0.5-1.2,1.2-1.2c0.6,0,1.2,0.5,1.2,1.2S15.7,16.1,15.1,16.1z"/>
</g>
</svg>
