<?xml version="1.0" encoding="utf-8"?>
<!-- Generator: Adobe Illustrator 27.0.0, SVG Export Plug-In . SVG Version: 6.00 Build 0)  -->
<svg version="1.1" id="Layer_1" xmlns="http://www.w3.org/2000/svg" xmlns:xlink="http://www.w3.org/1999/xlink" x="0px" y="0px"
	 viewBox="0 0 32 32" style="enable-background:new 0 0 32 32;" xml:space="preserve">
<style type="text/css">
	.st0{fill:#FFFFFF;}
	.st1{fill:#E4E8EB;}
	.st2{fill:#808285;}
	.st3{fill:#D1D3D4;}
	.st4{fill:#001632;}
	.st5{fill:none;stroke:#001632;stroke-width:0.9178;stroke-miterlimit:10;}
	.st6{fill:none;stroke:#CCCCCC;stroke-width:1.3527;stroke-linecap:round;stroke-miterlimit:10;}
	.st7{fill:none;stroke:#CCCCCC;stroke-width:0.6763;stroke-linecap:round;stroke-miterlimit:10;}
	.st8{fill:none;stroke:#CCCCCC;stroke-width:0.9606;stroke-miterlimit:10;}
	.st9{fill:none;stroke:#CCCCCC;stroke-width:0.8785;stroke-miterlimit:10;}
	.st10{fill:none;stroke:#CCCCCC;stroke-width:0.772;stroke-miterlimit:10;}
	.st11{fill:none;stroke:#CCCCCC;stroke-width:0.6;stroke-miterlimit:10;}
	.st12{fill:#CCCCCC;}
	.st13{fill:none;stroke:#000000;stroke-width:0.2;stroke-miterlimit:10;}
	.st14{fill:none;}
	.st15{fill:none;stroke:#000000;stroke-width:0.1;stroke-miterlimit:10;}
	.st16{fill:none;stroke:#020202;stroke-width:0.1;stroke-miterlimit:10;}
	.st17{fill:#E93903;}
	.st18{fill:#FA8909;}
	.st19{fill:#F66331;}
	.st20{fill:#F93F03;}
	.st21{fill:#CB0B03;}
	.st22{fill:#134F04;}
	.st23{fill:#FE9A37;}
	.st24{fill:#A40D03;}
	.st25{fill:#8B0A01;}
	.st26{fill:#169904;}
	.st27{fill:#23CA0D;}
	.st28{fill:#1BB10A;}
	.st29{fill:#146E04;}
	.st30{fill:#FDDF59;}
	.st31{fill:#FCD435;}
	.st32{fill:#FFCA00;}
	.st33{fill:#FEAD57;}
	.st34{fill:#20E70E;}
	.st35{fill:none;stroke:#000000;stroke-width:0.2371;stroke-miterlimit:10;}
	.st36{fill:#9A2D28;}
	.st37{fill:#CD3301;}
	.st38{fill:#FF9935;}
	.st39{fill:#2AD105;}
	.st40{fill:#1E9004;}
	.st41{fill:#FFFFFF;stroke:#000000;stroke-width:1.3063;stroke-miterlimit:10;}
	.st42{fill:none;stroke:#FFFFFF;stroke-width:0.6;stroke-miterlimit:10;}
	.st43{fill:none;stroke:#FFFFFF;stroke-miterlimit:10;}
	.st44{fill:none;stroke:#000000;stroke-width:5;stroke-miterlimit:10;}
	.st45{fill:none;stroke:#000000;stroke-width:3.5471;stroke-miterlimit:10;}
	.st46{fill:none;stroke:#CCCCCC;stroke-width:0.6;stroke-linecap:round;stroke-miterlimit:10;}
	.st47{fill:none;stroke:#CCCCCC;stroke-width:0.8101;stroke-linecap:round;stroke-miterlimit:10;}
	.st48{fill:none;stroke:#CCCCCC;stroke-width:0.5882;stroke-linecap:round;stroke-miterlimit:10;}
	.st49{fill:none;stroke:#CCCCCC;stroke-width:0.6529;stroke-miterlimit:10;}
	.st50{fill:#9FE5F7;}
	.st51{fill:none;stroke:#CCCCCC;stroke-width:0.5529;stroke-miterlimit:10;}
	.st52{fill:none;stroke:#FFFFFF;stroke-width:0.2163;stroke-miterlimit:10;}
	.st53{fill:none;stroke:#FFFFFF;stroke-width:0.9011;stroke-miterlimit:10;}
	.st54{fill:none;stroke:#FFFFFF;stroke-width:0.5781;stroke-miterlimit:10;}
	.st55{fill:none;stroke:#FFFFFF;stroke-width:0.2891;stroke-miterlimit:10;}
	.st56{fill:none;stroke:#FFFFFF;stroke-width:0.3643;stroke-miterlimit:10;}
	.st57{fill:none;stroke:#FFFFFF;stroke-width:0.2178;stroke-miterlimit:10;}
	.st58{fill:#EFEFEF;}
	.st59{fill:none;stroke:#FFFFFF;stroke-width:0.167;stroke-miterlimit:10;}
	.st60{fill:none;stroke:#FFFFFF;stroke-width:0.2574;stroke-linecap:round;stroke-linejoin:round;stroke-miterlimit:10;}
	.st61{fill:#ACD4F7;}
	.st62{opacity:0.1294;}
	.st63{fill:none;stroke:#00CFFF;stroke-width:1.4078;stroke-miterlimit:10;}
	.st64{fill:none;stroke:#000000;stroke-width:0.6642;stroke-miterlimit:10;}
	.st65{fill:none;stroke:#000000;stroke-width:0.2245;stroke-miterlimit:10;}
	.st66{fill:#FFFFFF;stroke:#CCCCCC;stroke-width:0.5337;stroke-miterlimit:10;}
	.st67{fill:#FFFFFF;stroke:#CCCCCC;stroke-width:0.6;stroke-miterlimit:10;}
	.st68{fill:none;stroke:#000000;stroke-width:0.6;stroke-miterlimit:10;}
	.st69{fill:none;stroke:#CCCCCC;stroke-width:1.1756;stroke-linecap:round;stroke-miterlimit:10;}
	.st70{fill:none;stroke:#CCCCCC;stroke-width:0.9378;stroke-linecap:round;stroke-miterlimit:10;}
	.st71{fill:none;stroke:#CCCCCC;stroke-width:0.4;stroke-miterlimit:10;}
	.st72{fill:none;stroke:#CCCCCC;stroke-width:0.5942;stroke-miterlimit:10;}
	.st73{fill:none;stroke:#CCCCCC;stroke-width:0.3;stroke-miterlimit:10;}
	.st74{fill:#AFAFAF;}
	.st75{fill:none;stroke:#CCCCCC;stroke-miterlimit:10;}
	.st76{fill:none;stroke:#CCCCCC;stroke-width:0.5676;stroke-linecap:round;stroke-miterlimit:10;}
	.st77{fill:none;stroke:url(#SVGID_1_);stroke-width:0.3;stroke-linecap:round;stroke-miterlimit:10;}
	
		.st78{fill:none;stroke:url(#SVGID_00000181049724960966051550000015264502914130394559_);stroke-width:0.3;stroke-linecap:round;stroke-miterlimit:10;}
	.st79{fill:none;stroke:#001632;stroke-width:2.1076;stroke-miterlimit:10;}
	.st80{fill:none;stroke:#FFFFFF;stroke-width:0.8;stroke-linecap:round;stroke-linejoin:round;stroke-miterlimit:10;}
	.st81{fill:none;stroke:#FFFFFF;stroke-width:1.2;stroke-linecap:round;stroke-linejoin:round;stroke-miterlimit:10;}
	.st82{fill:none;stroke:#FFFFFF;stroke-width:0.723;stroke-linecap:round;stroke-linejoin:round;stroke-miterlimit:10;}
</style>
<path class="st12" d="M27.6,18c0-5.8-4.7-10.6-10.6-10.6c-0.6,0-1.2,0.1-1.8,0.2l1.5-3.2c0.1-0.2,0-0.4-0.2-0.5l0,0l0.7-1.4
	c0.1-0.2,0-0.4-0.2-0.5l-2.5-1.2c-0.2-0.1-0.4,0-0.5,0.2l-0.7,1.4l0,0c-0.2-0.1-0.4,0-0.5,0.2l-4.2,8.9c-0.1,0.2,0,0.4,0.2,0.5l0,0
	l-0.5,1.1c-0.1,0.2,0,0.4,0.2,0.5l2.5,1.2c0.2,0.1,0.4,0,0.5-0.2l0.5-1.1l0,0c0.2,0.1,0.4,0,0.5-0.2l1.1-2.3l0.1,0.2
	c1-0.5,2.2-0.8,3.3-0.8c4.2,0,7.6,3.4,7.6,7.6c0,3.1-1.8,5.8-4.5,7c-0.1,0-0.1,0-0.2,0h-5.8c-0.1,0-0.1,0-0.2,0
	c-1.7-0.7-3.1-2.1-3.8-3.8h1.7c0.3,0,0.5-0.2,0.5-0.5V19c0-0.3-0.2-0.5-0.5-0.5H4.9c-0.3,0-0.5,0.2-0.5,0.5v1.7
	c0,0.3,0.2,0.5,0.5,0.5H7c0.7,2.1,2,3.9,3.7,5.2c-0.9,0.9-1.4,2.1-1.4,3.5c0,0.7,0.6,1.3,1.3,1.3h13.1c0.7,0,1.3-0.6,1.3-1.3
	c0-1.4-0.6-2.6-1.4-3.5C26,24.5,27.6,21.4,27.6,18z M17,28.6c-0.8,0-1.4-0.6-1.4-1.4c0-0.8,0.6-1.4,1.4-1.4c0.8,0,1.4,0.6,1.4,1.4
	C18.4,28,17.8,28.6,17,28.6z"/>
</svg>
